<mxfile host="app.diagrams.net" modified="2021-04-03T02:38:36.497Z" agent="5.0 (Windows NT 10.0; Win64; x64) AppleWebKit/537.36 (KHTML, like Gecko) Chrome/89.0.4389.114 Safari/537.36" etag="cRIYgFIsfVAl4YTS3sBh" version="14.5.4" type="github">
  <diagram id="R2lEEEUBdFMjLlhIrx00" name="Page-1">
    <mxGraphModel dx="1422" dy="705" grid="1" gridSize="10" guides="1" tooltips="1" connect="1" arrows="1" fold="1" page="1" pageScale="1" pageWidth="1100" pageHeight="850" math="0" shadow="0" extFonts="Permanent Marker^https://fonts.googleapis.com/css?family=Permanent+Marker">
      <root>
        <mxCell id="0" />
        <mxCell id="1" parent="0" />
        <mxCell id="7jDqQBMyQRLBIUlyPHuI-78" value="" style="shape=table;startSize=0;container=1;collapsible=1;childLayout=tableLayout;fixedRows=1;rowLines=0;fontStyle=0;align=center;resizeLast=1;strokeColor=none;fillColor=none;" vertex="1" parent="1">
          <mxGeometry x="620" y="1235" width="180" height="20" as="geometry" />
        </mxCell>
        <mxCell id="7jDqQBMyQRLBIUlyPHuI-79" value="" style="shape=partialRectangle;collapsible=0;dropTarget=0;pointerEvents=0;fillColor=none;top=0;left=0;bottom=0;right=0;points=[[0,0.5],[1,0.5]];portConstraint=eastwest;" vertex="1" parent="7jDqQBMyQRLBIUlyPHuI-78">
          <mxGeometry width="180" height="20" as="geometry" />
        </mxCell>
        <mxCell id="7jDqQBMyQRLBIUlyPHuI-80" value="" style="shape=partialRectangle;connectable=0;fillColor=none;top=0;left=0;bottom=0;right=0;editable=1;overflow=hidden;" vertex="1" parent="7jDqQBMyQRLBIUlyPHuI-79">
          <mxGeometry width="30" height="20" as="geometry" />
        </mxCell>
        <mxCell id="7jDqQBMyQRLBIUlyPHuI-81" value="Doctor_1" style="shape=partialRectangle;connectable=0;fillColor=none;top=0;left=0;bottom=0;right=0;align=left;spacingLeft=6;overflow=hidden;" vertex="1" parent="7jDqQBMyQRLBIUlyPHuI-79">
          <mxGeometry x="30" width="150" height="20" as="geometry" />
        </mxCell>
        <mxCell id="7jDqQBMyQRLBIUlyPHuI-1" value="&lt;font style=&quot;font-size: 15px&quot;&gt;&lt;b&gt;Homework 8.7&lt;/b&gt;&lt;br&gt;Camille Leonard cvl7qu&lt;br&gt;&lt;/font&gt;" style="text;html=1;align=left;verticalAlign=middle;resizable=0;points=[];autosize=1;" vertex="1" parent="1">
          <mxGeometry x="30" y="20" width="170" height="40" as="geometry" />
        </mxCell>
        <mxCell id="7jDqQBMyQRLBIUlyPHuI-2" value="Movie Star" style="rounded=0;whiteSpace=wrap;html=1;" vertex="1" parent="1">
          <mxGeometry x="160" y="230" width="120" height="60" as="geometry" />
        </mxCell>
        <mxCell id="7jDqQBMyQRLBIUlyPHuI-4" value="Name" style="ellipse;whiteSpace=wrap;html=1;align=center;fontStyle=4;" vertex="1" parent="1">
          <mxGeometry x="50" y="300" width="100" height="40" as="geometry" />
        </mxCell>
        <mxCell id="7jDqQBMyQRLBIUlyPHuI-6" value="Screen Name" style="ellipse;whiteSpace=wrap;html=1;align=center;" vertex="1" parent="1">
          <mxGeometry x="50" y="180" width="100" height="40" as="geometry" />
        </mxCell>
        <mxCell id="7jDqQBMyQRLBIUlyPHuI-7" value="Movie" style="rounded=0;whiteSpace=wrap;html=1;" vertex="1" parent="1">
          <mxGeometry x="510" y="230" width="120" height="60" as="geometry" />
        </mxCell>
        <mxCell id="7jDqQBMyQRLBIUlyPHuI-8" value="Star" style="rhombus;whiteSpace=wrap;html=1;" vertex="1" parent="1">
          <mxGeometry x="360" y="220" width="80" height="80" as="geometry" />
        </mxCell>
        <mxCell id="7jDqQBMyQRLBIUlyPHuI-9" value="Title" style="ellipse;whiteSpace=wrap;html=1;align=center;fontStyle=4;" vertex="1" parent="1">
          <mxGeometry x="460" y="160" width="100" height="40" as="geometry" />
        </mxCell>
        <mxCell id="7jDqQBMyQRLBIUlyPHuI-10" value="Rating" style="ellipse;whiteSpace=wrap;html=1;align=center;" vertex="1" parent="1">
          <mxGeometry x="530" y="80" width="100" height="40" as="geometry" />
        </mxCell>
        <mxCell id="7jDqQBMyQRLBIUlyPHuI-11" value="Length" style="ellipse;whiteSpace=wrap;html=1;align=center;" vertex="1" parent="1">
          <mxGeometry x="640" y="310" width="100" height="40" as="geometry" />
        </mxCell>
        <mxCell id="7jDqQBMyQRLBIUlyPHuI-12" value="Genre" style="ellipse;whiteSpace=wrap;html=1;align=center;" vertex="1" parent="1">
          <mxGeometry x="660" y="230" width="100" height="40" as="geometry" />
        </mxCell>
        <mxCell id="7jDqQBMyQRLBIUlyPHuI-13" value="Year" style="ellipse;whiteSpace=wrap;html=1;align=center;" vertex="1" parent="1">
          <mxGeometry x="600" y="160" width="100" height="40" as="geometry" />
        </mxCell>
        <mxCell id="7jDqQBMyQRLBIUlyPHuI-14" value="Produce" style="rhombus;whiteSpace=wrap;html=1;" vertex="1" parent="1">
          <mxGeometry x="530" y="380" width="80" height="80" as="geometry" />
        </mxCell>
        <mxCell id="7jDqQBMyQRLBIUlyPHuI-15" value="Studio" style="rounded=0;whiteSpace=wrap;html=1;" vertex="1" parent="1">
          <mxGeometry x="510" y="530" width="120" height="60" as="geometry" />
        </mxCell>
        <mxCell id="7jDqQBMyQRLBIUlyPHuI-18" value="Location&lt;span style=&quot;color: rgba(0 , 0 , 0 , 0) ; font-family: monospace ; font-size: 0px&quot;&gt;%3CmxGraphModel%3E%3Croot%3E%3CmxCell%20id%3D%220%22%2F%3E%3CmxCell%20id%3D%221%22%20parent%3D%220%22%2F%3E%3CmxCell%20id%3D%222%22%20value%3D%22Length%22%20style%3D%22ellipse%3BwhiteSpace%3Dwrap%3Bhtml%3D1%3Balign%3Dcenter%3B%22%20vertex%3D%221%22%20parent%3D%221%22%3E%3CmxGeometry%20x%3D%22720%22%20y%3D%22340%22%20width%3D%22100%22%20height%3D%2240%22%20as%3D%22geometry%22%2F%3E%3C%2FmxCell%3E%3C%2Froot%3E%3C%2FmxGraphModel%3E&lt;/span&gt;" style="ellipse;whiteSpace=wrap;html=1;align=center;" vertex="1" parent="1">
          <mxGeometry x="630" y="620" width="100" height="40" as="geometry" />
        </mxCell>
        <mxCell id="7jDqQBMyQRLBIUlyPHuI-20" value="Name" style="ellipse;whiteSpace=wrap;html=1;align=center;fontStyle=4;" vertex="1" parent="1">
          <mxGeometry x="480" y="620" width="100" height="40" as="geometry" />
        </mxCell>
        <mxCell id="7jDqQBMyQRLBIUlyPHuI-21" value="Hire" style="rhombus;whiteSpace=wrap;html=1;" vertex="1" parent="1">
          <mxGeometry x="300" y="410" width="80" height="80" as="geometry" />
        </mxCell>
        <mxCell id="7jDqQBMyQRLBIUlyPHuI-23" value="Salary" style="ellipse;whiteSpace=wrap;html=1;align=center;" vertex="1" parent="1">
          <mxGeometry x="160" y="480" width="100" height="40" as="geometry" />
        </mxCell>
        <mxCell id="7jDqQBMyQRLBIUlyPHuI-24" value="&lt;b&gt;Assumptions&lt;/b&gt;&lt;br&gt;- A movie is produced by a single Studio&amp;nbsp;&lt;br&gt;- All movies are produced by a Studio&lt;br&gt;- All movie titles are unique&lt;br&gt;- At any one time actors can only be hired by one Studio&lt;br&gt;- The Studio can hire many actors&amp;nbsp;" style="text;html=1;align=left;verticalAlign=middle;resizable=0;points=[];autosize=1;" vertex="1" parent="1">
          <mxGeometry x="10" y="670" width="310" height="90" as="geometry" />
        </mxCell>
        <mxCell id="7jDqQBMyQRLBIUlyPHuI-25" value="&lt;font size=&quot;1&quot;&gt;&lt;b style=&quot;font-size: 14px&quot;&gt;Simple IMDB Database&lt;/b&gt;&lt;/font&gt;" style="text;html=1;align=left;verticalAlign=middle;resizable=0;points=[];autosize=1;" vertex="1" parent="1">
          <mxGeometry x="490" y="40" width="170" height="20" as="geometry" />
        </mxCell>
        <mxCell id="7jDqQBMyQRLBIUlyPHuI-26" value="&lt;font style=&quot;font-size: 14px&quot;&gt;&lt;b&gt;Hospital Database&lt;/b&gt;&lt;/font&gt;" style="text;html=1;align=left;verticalAlign=middle;resizable=0;points=[];autosize=1;" vertex="1" parent="1">
          <mxGeometry x="490" y="880" width="140" height="20" as="geometry" />
        </mxCell>
        <mxCell id="7jDqQBMyQRLBIUlyPHuI-27" value="&lt;font style=&quot;font-size: 15px&quot;&gt;&lt;b&gt;Homework 8.7&lt;/b&gt;&lt;br&gt;Camille Leonard cvl7qu&lt;br&gt;&lt;/font&gt;" style="text;html=1;align=left;verticalAlign=middle;resizable=0;points=[];autosize=1;" vertex="1" parent="1">
          <mxGeometry x="60" y="880" width="170" height="40" as="geometry" />
        </mxCell>
        <mxCell id="7jDqQBMyQRLBIUlyPHuI-28" value="&lt;b&gt;DB Schema&lt;br&gt;movie_star(&lt;/b&gt;&lt;u&gt;name, &lt;/u&gt;screen_name)&lt;br&gt;&lt;b&gt;movie&lt;/b&gt;(&lt;u&gt;title&lt;/u&gt;, rating {G, PG, PG-13, R}, year, genre, length)&lt;br&gt;&lt;b&gt;studio(&lt;/b&gt;&lt;u&gt;name&lt;/u&gt;, location)&lt;br&gt;&lt;b&gt;star&lt;/b&gt;(&lt;u&gt;title, name)&lt;br&gt;&lt;/u&gt;&lt;b&gt;hire(&lt;/b&gt;&lt;u&gt;movie_star_name, &lt;/u&gt;salary&lt;u&gt;)&lt;br&gt;&lt;/u&gt;&lt;b&gt;produce&lt;/b&gt;(&lt;u&gt;title)&lt;/u&gt;" style="text;html=1;align=left;verticalAlign=middle;resizable=0;points=[];autosize=1;" vertex="1" parent="1">
          <mxGeometry x="740" y="440" width="320" height="100" as="geometry" />
        </mxCell>
        <mxCell id="7jDqQBMyQRLBIUlyPHuI-29" value="&lt;b&gt;Assumptions&lt;br&gt;-&amp;nbsp;&lt;br&gt;&lt;/b&gt;" style="text;html=1;align=left;verticalAlign=middle;resizable=0;points=[];autosize=1;" vertex="1" parent="1">
          <mxGeometry x="60" y="1505" width="90" height="30" as="geometry" />
        </mxCell>
        <mxCell id="7jDqQBMyQRLBIUlyPHuI-30" value="&lt;b&gt;DB Schema&lt;/b&gt;" style="text;html=1;align=left;verticalAlign=middle;resizable=0;points=[];autosize=1;" vertex="1" parent="1">
          <mxGeometry x="915" y="1470" width="80" height="20" as="geometry" />
        </mxCell>
        <mxCell id="7jDqQBMyQRLBIUlyPHuI-31" value="Staff" style="whiteSpace=wrap;html=1;align=center;" vertex="1" parent="1">
          <mxGeometry x="770" y="1040" width="100" height="40" as="geometry" />
        </mxCell>
        <mxCell id="7jDqQBMyQRLBIUlyPHuI-33" value="Name" style="ellipse;whiteSpace=wrap;html=1;align=center;" vertex="1" parent="1">
          <mxGeometry x="780" y="970" width="100" height="40" as="geometry" />
        </mxCell>
        <mxCell id="7jDqQBMyQRLBIUlyPHuI-34" value="Hospital ID" style="ellipse;whiteSpace=wrap;html=1;align=center;fontStyle=4;" vertex="1" parent="1">
          <mxGeometry x="670" y="1000" width="100" height="40" as="geometry" />
        </mxCell>
        <mxCell id="7jDqQBMyQRLBIUlyPHuI-35" value="Last" style="ellipse;whiteSpace=wrap;html=1;align=center;" vertex="1" parent="1">
          <mxGeometry x="890" y="950" width="70" height="30" as="geometry" />
        </mxCell>
        <mxCell id="7jDqQBMyQRLBIUlyPHuI-36" value="Middle Initial" style="ellipse;whiteSpace=wrap;html=1;align=center;" vertex="1" parent="1">
          <mxGeometry x="820" y="920" width="80" height="30" as="geometry" />
        </mxCell>
        <mxCell id="7jDqQBMyQRLBIUlyPHuI-37" value="First" style="ellipse;whiteSpace=wrap;html=1;align=center;" vertex="1" parent="1">
          <mxGeometry x="730" y="930" width="80" height="30" as="geometry" />
        </mxCell>
        <mxCell id="7jDqQBMyQRLBIUlyPHuI-38" value="Phone Number" style="ellipse;whiteSpace=wrap;html=1;align=center;" vertex="1" parent="1">
          <mxGeometry x="890" y="1040" width="100" height="40" as="geometry" />
        </mxCell>
        <mxCell id="7jDqQBMyQRLBIUlyPHuI-49" value="Office" style="ellipse;whiteSpace=wrap;html=1;align=center;" vertex="1" parent="1">
          <mxGeometry x="737.5" y="1320" width="52.5" height="30" as="geometry" />
        </mxCell>
        <mxCell id="7jDqQBMyQRLBIUlyPHuI-55" value="" style="endArrow=none;html=1;entryX=1;entryY=0.5;entryDx=0;entryDy=0;exitX=0;exitY=0.5;exitDx=0;exitDy=0;" edge="1" parent="1" source="7jDqQBMyQRLBIUlyPHuI-58" target="7jDqQBMyQRLBIUlyPHuI-160">
          <mxGeometry width="50" height="50" relative="1" as="geometry">
            <mxPoint x="770" y="1410" as="sourcePoint" />
            <mxPoint x="840" y="1340" as="targetPoint" />
          </mxGeometry>
        </mxCell>
        <mxCell id="7jDqQBMyQRLBIUlyPHuI-57" value="Specialization" style="ellipse;whiteSpace=wrap;html=1;align=center;" vertex="1" parent="1">
          <mxGeometry x="950" y="1285" width="100" height="40" as="geometry" />
        </mxCell>
        <mxCell id="7jDqQBMyQRLBIUlyPHuI-58" value="Department" style="ellipse;whiteSpace=wrap;html=1;align=center;" vertex="1" parent="1">
          <mxGeometry x="960" y="1200" width="90" height="40" as="geometry" />
        </mxCell>
        <mxCell id="7jDqQBMyQRLBIUlyPHuI-61" value="Patient" style="whiteSpace=wrap;html=1;align=center;" vertex="1" parent="1">
          <mxGeometry x="420" y="1020" width="100" height="40" as="geometry" />
        </mxCell>
        <mxCell id="7jDqQBMyQRLBIUlyPHuI-62" value="Treat" style="rhombus;whiteSpace=wrap;html=1;" vertex="1" parent="1">
          <mxGeometry x="570" y="1090" width="60" height="60" as="geometry" />
        </mxCell>
        <mxCell id="7jDqQBMyQRLBIUlyPHuI-63" value="Specialization (max. 3)" style="ellipse;shape=doubleEllipse;margin=3;whiteSpace=wrap;html=1;align=center;" vertex="1" parent="1">
          <mxGeometry x="620" y="1315" width="100" height="40" as="geometry" />
        </mxCell>
        <mxCell id="7jDqQBMyQRLBIUlyPHuI-77" value="Consult" style="rhombus;whiteSpace=wrap;html=1;" vertex="1" parent="1">
          <mxGeometry x="590" y="1220" width="60" height="60" as="geometry" />
        </mxCell>
        <mxCell id="7jDqQBMyQRLBIUlyPHuI-82" value="Doctor_2" style="shape=partialRectangle;connectable=0;fillColor=none;top=0;left=0;bottom=0;right=0;align=left;spacingLeft=6;overflow=hidden;" vertex="1" parent="1">
          <mxGeometry x="650" y="1255" width="150" height="20" as="geometry" />
        </mxCell>
        <mxCell id="7jDqQBMyQRLBIUlyPHuI-84" value="" style="line;strokeWidth=1;rotatable=0;dashed=0;labelPosition=right;align=left;verticalAlign=middle;spacingTop=0;spacingLeft=6;points=[];portConstraint=eastwest;" vertex="1" parent="1">
          <mxGeometry x="650" y="1245" width="70" height="10" as="geometry" />
        </mxCell>
        <mxCell id="7jDqQBMyQRLBIUlyPHuI-85" value="" style="line;strokeWidth=1;rotatable=0;dashed=0;labelPosition=right;align=left;verticalAlign=middle;spacingTop=0;spacingLeft=6;points=[];portConstraint=eastwest;" vertex="1" parent="1">
          <mxGeometry x="630" y="1265" width="90" height="10" as="geometry" />
        </mxCell>
        <mxCell id="7jDqQBMyQRLBIUlyPHuI-86" value="" style="endArrow=none;html=1;exitX=1;exitY=1;exitDx=0;exitDy=0;entryX=0.5;entryY=0;entryDx=0;entryDy=0;" edge="1" parent="1" source="7jDqQBMyQRLBIUlyPHuI-62" target="7jDqQBMyQRLBIUlyPHuI-161">
          <mxGeometry width="50" height="50" relative="1" as="geometry">
            <mxPoint x="640" y="1200" as="sourcePoint" />
            <mxPoint x="660" y="1210" as="targetPoint" />
          </mxGeometry>
        </mxCell>
        <mxCell id="7jDqQBMyQRLBIUlyPHuI-87" value="" style="endArrow=none;html=1;exitX=0.5;exitY=1;exitDx=0;exitDy=0;entryX=0;entryY=0;entryDx=0;entryDy=0;" edge="1" parent="1" source="7jDqQBMyQRLBIUlyPHuI-61" target="7jDqQBMyQRLBIUlyPHuI-62">
          <mxGeometry width="50" height="50" relative="1" as="geometry">
            <mxPoint x="640" y="1200" as="sourcePoint" />
            <mxPoint x="690" y="1150" as="targetPoint" />
          </mxGeometry>
        </mxCell>
        <mxCell id="7jDqQBMyQRLBIUlyPHuI-88" value="Check-Out Date" style="ellipse;whiteSpace=wrap;html=1;align=center;" vertex="1" parent="1">
          <mxGeometry x="290" y="1100" width="100" height="40" as="geometry" />
        </mxCell>
        <mxCell id="7jDqQBMyQRLBIUlyPHuI-89" value="Admission Date" style="ellipse;whiteSpace=wrap;html=1;align=center;" vertex="1" parent="1">
          <mxGeometry x="270" y="1050" width="100" height="40" as="geometry" />
        </mxCell>
        <mxCell id="7jDqQBMyQRLBIUlyPHuI-90" value="Insurance" style="ellipse;whiteSpace=wrap;html=1;align=center;" vertex="1" parent="1">
          <mxGeometry x="290" y="970" width="100" height="40" as="geometry" />
        </mxCell>
        <mxCell id="7jDqQBMyQRLBIUlyPHuI-91" value="Name" style="ellipse;whiteSpace=wrap;html=1;align=center;" vertex="1" parent="1">
          <mxGeometry x="410" y="930" width="100" height="40" as="geometry" />
        </mxCell>
        <mxCell id="7jDqQBMyQRLBIUlyPHuI-92" value="SSN" style="ellipse;whiteSpace=wrap;html=1;align=center;fontStyle=4;" vertex="1" parent="1">
          <mxGeometry x="515" y="970" width="100" height="40" as="geometry" />
        </mxCell>
        <mxCell id="7jDqQBMyQRLBIUlyPHuI-94" value="" style="endArrow=none;html=1;exitX=0.5;exitY=0;exitDx=0;exitDy=0;entryX=0;entryY=0.5;entryDx=0;entryDy=0;" edge="1" parent="1" source="7jDqQBMyQRLBIUlyPHuI-89" target="7jDqQBMyQRLBIUlyPHuI-61">
          <mxGeometry width="50" height="50" relative="1" as="geometry">
            <mxPoint x="640" y="1200" as="sourcePoint" />
            <mxPoint x="690" y="1150" as="targetPoint" />
          </mxGeometry>
        </mxCell>
        <mxCell id="7jDqQBMyQRLBIUlyPHuI-95" value="" style="endArrow=none;html=1;exitX=1;exitY=0;exitDx=0;exitDy=0;entryX=0.25;entryY=1;entryDx=0;entryDy=0;" edge="1" parent="1" source="7jDqQBMyQRLBIUlyPHuI-88" target="7jDqQBMyQRLBIUlyPHuI-61">
          <mxGeometry width="50" height="50" relative="1" as="geometry">
            <mxPoint x="640" y="1200" as="sourcePoint" />
            <mxPoint x="690" y="1150" as="targetPoint" />
          </mxGeometry>
        </mxCell>
        <mxCell id="7jDqQBMyQRLBIUlyPHuI-96" value="" style="endArrow=none;html=1;exitX=0.5;exitY=1;exitDx=0;exitDy=0;entryX=0;entryY=0;entryDx=0;entryDy=0;" edge="1" parent="1" source="7jDqQBMyQRLBIUlyPHuI-90" target="7jDqQBMyQRLBIUlyPHuI-61">
          <mxGeometry width="50" height="50" relative="1" as="geometry">
            <mxPoint x="640" y="1200" as="sourcePoint" />
            <mxPoint x="690" y="1150" as="targetPoint" />
          </mxGeometry>
        </mxCell>
        <mxCell id="7jDqQBMyQRLBIUlyPHuI-97" value="" style="endArrow=none;html=1;exitX=0.5;exitY=1;exitDx=0;exitDy=0;entryX=0.5;entryY=0;entryDx=0;entryDy=0;" edge="1" parent="1" source="7jDqQBMyQRLBIUlyPHuI-91" target="7jDqQBMyQRLBIUlyPHuI-61">
          <mxGeometry width="50" height="50" relative="1" as="geometry">
            <mxPoint x="640" y="1200" as="sourcePoint" />
            <mxPoint x="690" y="1150" as="targetPoint" />
          </mxGeometry>
        </mxCell>
        <mxCell id="7jDqQBMyQRLBIUlyPHuI-98" value="" style="endArrow=none;html=1;exitX=1;exitY=0;exitDx=0;exitDy=0;entryX=0.5;entryY=1;entryDx=0;entryDy=0;" edge="1" parent="1" source="7jDqQBMyQRLBIUlyPHuI-61" target="7jDqQBMyQRLBIUlyPHuI-92">
          <mxGeometry width="50" height="50" relative="1" as="geometry">
            <mxPoint x="640" y="1200" as="sourcePoint" />
            <mxPoint x="690" y="1150" as="targetPoint" />
          </mxGeometry>
        </mxCell>
        <mxCell id="7jDqQBMyQRLBIUlyPHuI-101" value="" style="endArrow=none;html=1;entryX=0.75;entryY=1;entryDx=0;entryDy=0;exitX=0.5;exitY=0;exitDx=0;exitDy=0;" edge="1" parent="1" source="7jDqQBMyQRLBIUlyPHuI-57" target="7jDqQBMyQRLBIUlyPHuI-160">
          <mxGeometry width="50" height="50" relative="1" as="geometry">
            <mxPoint x="610" y="1340" as="sourcePoint" />
            <mxPoint x="890" y="1360" as="targetPoint" />
          </mxGeometry>
        </mxCell>
        <mxCell id="7jDqQBMyQRLBIUlyPHuI-105" value="" style="endArrow=none;html=1;entryX=0.5;entryY=1;entryDx=0;entryDy=0;exitX=0;exitY=0.5;exitDx=0;exitDy=0;" edge="1" parent="1" source="7jDqQBMyQRLBIUlyPHuI-31" target="7jDqQBMyQRLBIUlyPHuI-34">
          <mxGeometry width="50" height="50" relative="1" as="geometry">
            <mxPoint x="620" y="1210" as="sourcePoint" />
            <mxPoint x="670" y="1160" as="targetPoint" />
          </mxGeometry>
        </mxCell>
        <mxCell id="7jDqQBMyQRLBIUlyPHuI-106" value="" style="endArrow=none;html=1;entryX=0.5;entryY=1;entryDx=0;entryDy=0;exitX=0;exitY=0.5;exitDx=0;exitDy=0;" edge="1" parent="1" source="7jDqQBMyQRLBIUlyPHuI-33" target="7jDqQBMyQRLBIUlyPHuI-37">
          <mxGeometry width="50" height="50" relative="1" as="geometry">
            <mxPoint x="620" y="1210" as="sourcePoint" />
            <mxPoint x="670" y="1160" as="targetPoint" />
          </mxGeometry>
        </mxCell>
        <mxCell id="7jDqQBMyQRLBIUlyPHuI-107" value="" style="endArrow=none;html=1;entryX=0.5;entryY=1;entryDx=0;entryDy=0;exitX=0.5;exitY=0;exitDx=0;exitDy=0;" edge="1" parent="1" source="7jDqQBMyQRLBIUlyPHuI-33" target="7jDqQBMyQRLBIUlyPHuI-36">
          <mxGeometry width="50" height="50" relative="1" as="geometry">
            <mxPoint x="620" y="1210" as="sourcePoint" />
            <mxPoint x="670" y="1160" as="targetPoint" />
          </mxGeometry>
        </mxCell>
        <mxCell id="7jDqQBMyQRLBIUlyPHuI-108" value="" style="endArrow=none;html=1;entryX=0.5;entryY=1;entryDx=0;entryDy=0;exitX=1;exitY=0.5;exitDx=0;exitDy=0;" edge="1" parent="1" source="7jDqQBMyQRLBIUlyPHuI-33" target="7jDqQBMyQRLBIUlyPHuI-35">
          <mxGeometry width="50" height="50" relative="1" as="geometry">
            <mxPoint x="620" y="1210" as="sourcePoint" />
            <mxPoint x="670" y="1160" as="targetPoint" />
          </mxGeometry>
        </mxCell>
        <mxCell id="7jDqQBMyQRLBIUlyPHuI-109" value="" style="endArrow=none;html=1;entryX=0.5;entryY=1;entryDx=0;entryDy=0;exitX=0.5;exitY=0;exitDx=0;exitDy=0;" edge="1" parent="1" source="7jDqQBMyQRLBIUlyPHuI-31" target="7jDqQBMyQRLBIUlyPHuI-33">
          <mxGeometry width="50" height="50" relative="1" as="geometry">
            <mxPoint x="620" y="1210" as="sourcePoint" />
            <mxPoint x="670" y="1160" as="targetPoint" />
          </mxGeometry>
        </mxCell>
        <mxCell id="7jDqQBMyQRLBIUlyPHuI-110" value="" style="endArrow=none;html=1;entryX=0;entryY=0.5;entryDx=0;entryDy=0;exitX=1;exitY=0.5;exitDx=0;exitDy=0;" edge="1" parent="1" source="7jDqQBMyQRLBIUlyPHuI-31" target="7jDqQBMyQRLBIUlyPHuI-38">
          <mxGeometry width="50" height="50" relative="1" as="geometry">
            <mxPoint x="620" y="1210" as="sourcePoint" />
            <mxPoint x="670" y="1160" as="targetPoint" />
          </mxGeometry>
        </mxCell>
        <mxCell id="7jDqQBMyQRLBIUlyPHuI-116" value="Name" style="ellipse;whiteSpace=wrap;html=1;align=center;" vertex="1" parent="1">
          <mxGeometry x="360" y="1220" width="70" height="30" as="geometry" />
        </mxCell>
        <mxCell id="7jDqQBMyQRLBIUlyPHuI-117" value="Time" style="ellipse;whiteSpace=wrap;html=1;align=center;" vertex="1" parent="1">
          <mxGeometry x="370" y="1335" width="60" height="35" as="geometry" />
        </mxCell>
        <mxCell id="7jDqQBMyQRLBIUlyPHuI-118" value="Date" style="ellipse;whiteSpace=wrap;html=1;align=center;" vertex="1" parent="1">
          <mxGeometry x="240" y="1335" width="70" height="25" as="geometry" />
        </mxCell>
        <mxCell id="7jDqQBMyQRLBIUlyPHuI-119" value="Result" style="ellipse;whiteSpace=wrap;html=1;align=center;" vertex="1" parent="1">
          <mxGeometry x="220" y="1280" width="60" height="30" as="geometry" />
        </mxCell>
        <mxCell id="7jDqQBMyQRLBIUlyPHuI-120" value="ID" style="ellipse;whiteSpace=wrap;html=1;align=center;fontStyle=4;" vertex="1" parent="1">
          <mxGeometry x="260" y="1225" width="60" height="25" as="geometry" />
        </mxCell>
        <mxCell id="7jDqQBMyQRLBIUlyPHuI-122" value="" style="endArrow=none;html=1;exitX=1;exitY=0.5;exitDx=0;exitDy=0;" edge="1" parent="1" source="7jDqQBMyQRLBIUlyPHuI-173">
          <mxGeometry width="50" height="50" relative="1" as="geometry">
            <mxPoint x="472.5" y="1330" as="sourcePoint" />
            <mxPoint x="740" y="1270" as="targetPoint" />
          </mxGeometry>
        </mxCell>
        <mxCell id="7jDqQBMyQRLBIUlyPHuI-128" value="Assist" style="rhombus;whiteSpace=wrap;html=1;" vertex="1" parent="1">
          <mxGeometry x="800" y="1295" width="60" height="60" as="geometry" />
        </mxCell>
        <mxCell id="7jDqQBMyQRLBIUlyPHuI-137" value="" style="endArrow=none;html=1;exitX=1;exitY=0.5;exitDx=0;exitDy=0;entryX=0;entryY=0.5;entryDx=0;entryDy=0;" edge="1" parent="1" source="7jDqQBMyQRLBIUlyPHuI-8" target="7jDqQBMyQRLBIUlyPHuI-7">
          <mxGeometry width="50" height="50" relative="1" as="geometry">
            <mxPoint x="530" y="400" as="sourcePoint" />
            <mxPoint x="580" y="350" as="targetPoint" />
          </mxGeometry>
        </mxCell>
        <mxCell id="7jDqQBMyQRLBIUlyPHuI-138" value="" style="endArrow=none;html=1;entryX=0.5;entryY=1;entryDx=0;entryDy=0;" edge="1" parent="1" source="7jDqQBMyQRLBIUlyPHuI-7" target="7jDqQBMyQRLBIUlyPHuI-9">
          <mxGeometry width="50" height="50" relative="1" as="geometry">
            <mxPoint x="530" y="400" as="sourcePoint" />
            <mxPoint x="580" y="350" as="targetPoint" />
          </mxGeometry>
        </mxCell>
        <mxCell id="7jDqQBMyQRLBIUlyPHuI-139" value="" style="endArrow=none;html=1;entryX=0.5;entryY=1;entryDx=0;entryDy=0;exitX=0.5;exitY=0;exitDx=0;exitDy=0;" edge="1" parent="1" source="7jDqQBMyQRLBIUlyPHuI-7" target="7jDqQBMyQRLBIUlyPHuI-10">
          <mxGeometry width="50" height="50" relative="1" as="geometry">
            <mxPoint x="530" y="400" as="sourcePoint" />
            <mxPoint x="580" y="350" as="targetPoint" />
          </mxGeometry>
        </mxCell>
        <mxCell id="7jDqQBMyQRLBIUlyPHuI-140" value="" style="endArrow=none;html=1;entryX=0.43;entryY=1.025;entryDx=0;entryDy=0;entryPerimeter=0;" edge="1" parent="1" source="7jDqQBMyQRLBIUlyPHuI-7" target="7jDqQBMyQRLBIUlyPHuI-13">
          <mxGeometry width="50" height="50" relative="1" as="geometry">
            <mxPoint x="530" y="400" as="sourcePoint" />
            <mxPoint x="580" y="350" as="targetPoint" />
          </mxGeometry>
        </mxCell>
        <mxCell id="7jDqQBMyQRLBIUlyPHuI-141" value="" style="endArrow=none;html=1;entryX=0;entryY=0.5;entryDx=0;entryDy=0;exitX=1;exitY=0.5;exitDx=0;exitDy=0;" edge="1" parent="1" source="7jDqQBMyQRLBIUlyPHuI-7" target="7jDqQBMyQRLBIUlyPHuI-12">
          <mxGeometry width="50" height="50" relative="1" as="geometry">
            <mxPoint x="530" y="400" as="sourcePoint" />
            <mxPoint x="580" y="350" as="targetPoint" />
          </mxGeometry>
        </mxCell>
        <mxCell id="7jDqQBMyQRLBIUlyPHuI-142" value="" style="endArrow=none;html=1;entryX=0;entryY=0.5;entryDx=0;entryDy=0;exitX=0.75;exitY=1;exitDx=0;exitDy=0;" edge="1" parent="1" source="7jDqQBMyQRLBIUlyPHuI-7" target="7jDqQBMyQRLBIUlyPHuI-11">
          <mxGeometry width="50" height="50" relative="1" as="geometry">
            <mxPoint x="530" y="400" as="sourcePoint" />
            <mxPoint x="580" y="350" as="targetPoint" />
          </mxGeometry>
        </mxCell>
        <mxCell id="7jDqQBMyQRLBIUlyPHuI-143" value="" style="endArrow=none;html=1;exitX=1;exitY=0.5;exitDx=0;exitDy=0;" edge="1" parent="1" source="7jDqQBMyQRLBIUlyPHuI-2" target="7jDqQBMyQRLBIUlyPHuI-8">
          <mxGeometry width="50" height="50" relative="1" as="geometry">
            <mxPoint x="530" y="400" as="sourcePoint" />
            <mxPoint x="580" y="350" as="targetPoint" />
          </mxGeometry>
        </mxCell>
        <mxCell id="7jDqQBMyQRLBIUlyPHuI-144" value="" style="endArrow=none;html=1;entryX=1;entryY=1;entryDx=0;entryDy=0;exitX=0.25;exitY=0;exitDx=0;exitDy=0;" edge="1" parent="1" source="7jDqQBMyQRLBIUlyPHuI-2" target="7jDqQBMyQRLBIUlyPHuI-6">
          <mxGeometry width="50" height="50" relative="1" as="geometry">
            <mxPoint x="530" y="400" as="sourcePoint" />
            <mxPoint x="580" y="350" as="targetPoint" />
          </mxGeometry>
        </mxCell>
        <mxCell id="7jDqQBMyQRLBIUlyPHuI-145" value="" style="endArrow=none;html=1;exitX=1;exitY=0.5;exitDx=0;exitDy=0;entryX=0.25;entryY=1;entryDx=0;entryDy=0;" edge="1" parent="1" source="7jDqQBMyQRLBIUlyPHuI-4" target="7jDqQBMyQRLBIUlyPHuI-2">
          <mxGeometry width="50" height="50" relative="1" as="geometry">
            <mxPoint x="530" y="400" as="sourcePoint" />
            <mxPoint x="580" y="350" as="targetPoint" />
          </mxGeometry>
        </mxCell>
        <mxCell id="7jDqQBMyQRLBIUlyPHuI-146" value="" style="endArrow=none;html=1;entryX=0.4;entryY=1.017;entryDx=0;entryDy=0;entryPerimeter=0;exitX=0.35;exitY=0.138;exitDx=0;exitDy=0;exitPerimeter=0;" edge="1" parent="1">
          <mxGeometry width="50" height="50" relative="1" as="geometry">
            <mxPoint x="563" y="390.03999999999996" as="sourcePoint" />
            <mxPoint x="563" y="290.02" as="targetPoint" />
          </mxGeometry>
        </mxCell>
        <mxCell id="7jDqQBMyQRLBIUlyPHuI-147" value="" style="endArrow=none;html=1;entryX=0.4;entryY=1.017;entryDx=0;entryDy=0;entryPerimeter=0;" edge="1" parent="1">
          <mxGeometry width="50" height="50" relative="1" as="geometry">
            <mxPoint x="570" y="380" as="sourcePoint" />
            <mxPoint x="569.5" y="290" as="targetPoint" />
          </mxGeometry>
        </mxCell>
        <mxCell id="7jDqQBMyQRLBIUlyPHuI-148" value="" style="endArrow=classic;html=1;exitX=0.5;exitY=1;exitDx=0;exitDy=0;entryX=0.5;entryY=0;entryDx=0;entryDy=0;" edge="1" parent="1" source="7jDqQBMyQRLBIUlyPHuI-14" target="7jDqQBMyQRLBIUlyPHuI-15">
          <mxGeometry width="50" height="50" relative="1" as="geometry">
            <mxPoint x="530" y="400" as="sourcePoint" />
            <mxPoint x="580" y="350" as="targetPoint" />
          </mxGeometry>
        </mxCell>
        <mxCell id="7jDqQBMyQRLBIUlyPHuI-149" value="" style="endArrow=none;html=1;exitX=0.75;exitY=1;exitDx=0;exitDy=0;entryX=0.375;entryY=0.163;entryDx=0;entryDy=0;entryPerimeter=0;" edge="1" parent="1" source="7jDqQBMyQRLBIUlyPHuI-2" target="7jDqQBMyQRLBIUlyPHuI-21">
          <mxGeometry width="50" height="50" relative="1" as="geometry">
            <mxPoint x="530" y="400" as="sourcePoint" />
            <mxPoint x="580" y="350" as="targetPoint" />
          </mxGeometry>
        </mxCell>
        <mxCell id="7jDqQBMyQRLBIUlyPHuI-150" value="" style="endArrow=none;html=1;exitX=0.75;exitY=1;exitDx=0;exitDy=0;entryX=0.375;entryY=0.163;entryDx=0;entryDy=0;entryPerimeter=0;" edge="1" parent="1">
          <mxGeometry width="50" height="50" relative="1" as="geometry">
            <mxPoint x="246" y="292" as="sourcePoint" />
            <mxPoint x="326" y="425.03999999999996" as="targetPoint" />
          </mxGeometry>
        </mxCell>
        <mxCell id="7jDqQBMyQRLBIUlyPHuI-152" value="" style="endArrow=classic;html=1;exitX=1;exitY=1;exitDx=0;exitDy=0;entryX=0;entryY=0.5;entryDx=0;entryDy=0;" edge="1" parent="1" source="7jDqQBMyQRLBIUlyPHuI-21" target="7jDqQBMyQRLBIUlyPHuI-15">
          <mxGeometry width="50" height="50" relative="1" as="geometry">
            <mxPoint x="530" y="400" as="sourcePoint" />
            <mxPoint x="580" y="350" as="targetPoint" />
          </mxGeometry>
        </mxCell>
        <mxCell id="7jDqQBMyQRLBIUlyPHuI-153" value="" style="endArrow=none;dashed=1;html=1;exitX=1;exitY=0.5;exitDx=0;exitDy=0;" edge="1" parent="1" source="7jDqQBMyQRLBIUlyPHuI-23" target="7jDqQBMyQRLBIUlyPHuI-21">
          <mxGeometry width="50" height="50" relative="1" as="geometry">
            <mxPoint x="530" y="400" as="sourcePoint" />
            <mxPoint x="580" y="350" as="targetPoint" />
          </mxGeometry>
        </mxCell>
        <mxCell id="7jDqQBMyQRLBIUlyPHuI-154" value="" style="endArrow=none;html=1;exitX=0.5;exitY=0;exitDx=0;exitDy=0;entryX=0.25;entryY=1;entryDx=0;entryDy=0;" edge="1" parent="1" source="7jDqQBMyQRLBIUlyPHuI-20" target="7jDqQBMyQRLBIUlyPHuI-15">
          <mxGeometry width="50" height="50" relative="1" as="geometry">
            <mxPoint x="530" y="400" as="sourcePoint" />
            <mxPoint x="580" y="350" as="targetPoint" />
          </mxGeometry>
        </mxCell>
        <mxCell id="7jDqQBMyQRLBIUlyPHuI-155" value="" style="endArrow=none;html=1;exitX=0.75;exitY=1;exitDx=0;exitDy=0;entryX=0;entryY=0;entryDx=0;entryDy=0;" edge="1" parent="1" source="7jDqQBMyQRLBIUlyPHuI-15" target="7jDqQBMyQRLBIUlyPHuI-18">
          <mxGeometry width="50" height="50" relative="1" as="geometry">
            <mxPoint x="530" y="400" as="sourcePoint" />
            <mxPoint x="580" y="350" as="targetPoint" />
          </mxGeometry>
        </mxCell>
        <mxCell id="7jDqQBMyQRLBIUlyPHuI-157" value="" style="triangle;whiteSpace=wrap;html=1;rotation=90;" vertex="1" parent="1">
          <mxGeometry x="790" y="1110" width="60" height="80" as="geometry" />
        </mxCell>
        <mxCell id="7jDqQBMyQRLBIUlyPHuI-158" value="ISA" style="text;html=1;align=center;verticalAlign=middle;resizable=0;points=[];autosize=1;" vertex="1" parent="1">
          <mxGeometry x="805" y="1130" width="30" height="20" as="geometry" />
        </mxCell>
        <mxCell id="7jDqQBMyQRLBIUlyPHuI-159" value="" style="endArrow=none;html=1;entryX=0.5;entryY=1;entryDx=0;entryDy=0;exitX=0;exitY=0.5;exitDx=0;exitDy=0;" edge="1" parent="1" source="7jDqQBMyQRLBIUlyPHuI-157" target="7jDqQBMyQRLBIUlyPHuI-31">
          <mxGeometry width="50" height="50" relative="1" as="geometry">
            <mxPoint x="610" y="1230" as="sourcePoint" />
            <mxPoint x="660" y="1180" as="targetPoint" />
          </mxGeometry>
        </mxCell>
        <mxCell id="7jDqQBMyQRLBIUlyPHuI-160" value="Nurse" style="whiteSpace=wrap;html=1;align=center;" vertex="1" parent="1">
          <mxGeometry x="865" y="1240" width="70" height="30" as="geometry" />
        </mxCell>
        <mxCell id="7jDqQBMyQRLBIUlyPHuI-161" value="Doctor" style="whiteSpace=wrap;html=1;align=center;" vertex="1" parent="1">
          <mxGeometry x="720" y="1240" width="70" height="30" as="geometry" />
        </mxCell>
        <mxCell id="7jDqQBMyQRLBIUlyPHuI-163" value="" style="endArrow=none;html=1;entryX=0.75;entryY=1;entryDx=0;entryDy=0;exitX=0;exitY=0;exitDx=0;exitDy=0;" edge="1" parent="1" source="7jDqQBMyQRLBIUlyPHuI-128" target="7jDqQBMyQRLBIUlyPHuI-161">
          <mxGeometry width="50" height="50" relative="1" as="geometry">
            <mxPoint x="610" y="1260" as="sourcePoint" />
            <mxPoint x="660" y="1210" as="targetPoint" />
          </mxGeometry>
        </mxCell>
        <mxCell id="7jDqQBMyQRLBIUlyPHuI-164" value="" style="endArrow=none;html=1;entryX=0.25;entryY=1;entryDx=0;entryDy=0;exitX=1;exitY=0;exitDx=0;exitDy=0;" edge="1" parent="1" source="7jDqQBMyQRLBIUlyPHuI-128" target="7jDqQBMyQRLBIUlyPHuI-160">
          <mxGeometry width="50" height="50" relative="1" as="geometry">
            <mxPoint x="610" y="1260" as="sourcePoint" />
            <mxPoint x="660" y="1210" as="targetPoint" />
          </mxGeometry>
        </mxCell>
        <mxCell id="7jDqQBMyQRLBIUlyPHuI-165" value="" style="endArrow=none;html=1;entryX=0.25;entryY=1;entryDx=0;entryDy=0;exitX=1;exitY=0;exitDx=0;exitDy=0;" edge="1" parent="1">
          <mxGeometry width="50" height="50" relative="1" as="geometry">
            <mxPoint x="850" y="1311" as="sourcePoint" />
            <mxPoint x="887.5" y="1271" as="targetPoint" />
          </mxGeometry>
        </mxCell>
        <mxCell id="7jDqQBMyQRLBIUlyPHuI-166" value="" style="endArrow=none;html=1;entryX=0.5;entryY=1;entryDx=0;entryDy=0;exitX=0.5;exitY=0;exitDx=0;exitDy=0;" edge="1" parent="1" source="7jDqQBMyQRLBIUlyPHuI-161" target="7jDqQBMyQRLBIUlyPHuI-157">
          <mxGeometry width="50" height="50" relative="1" as="geometry">
            <mxPoint x="610" y="1230" as="sourcePoint" />
            <mxPoint x="660" y="1180" as="targetPoint" />
          </mxGeometry>
        </mxCell>
        <mxCell id="7jDqQBMyQRLBIUlyPHuI-167" value="" style="endArrow=none;html=1;entryX=0.5;entryY=0;entryDx=0;entryDy=0;exitX=0.5;exitY=0;exitDx=0;exitDy=0;" edge="1" parent="1" source="7jDqQBMyQRLBIUlyPHuI-160" target="7jDqQBMyQRLBIUlyPHuI-157">
          <mxGeometry width="50" height="50" relative="1" as="geometry">
            <mxPoint x="610" y="1230" as="sourcePoint" />
            <mxPoint x="660" y="1180" as="targetPoint" />
          </mxGeometry>
        </mxCell>
        <mxCell id="7jDqQBMyQRLBIUlyPHuI-168" value="" style="endArrow=none;html=1;exitX=0.5;exitY=0;exitDx=0;exitDy=0;entryX=0.25;entryY=1;entryDx=0;entryDy=0;" edge="1" parent="1" source="7jDqQBMyQRLBIUlyPHuI-63" target="7jDqQBMyQRLBIUlyPHuI-161">
          <mxGeometry width="50" height="50" relative="1" as="geometry">
            <mxPoint x="610" y="1260" as="sourcePoint" />
            <mxPoint x="660" y="1210" as="targetPoint" />
          </mxGeometry>
        </mxCell>
        <mxCell id="7jDqQBMyQRLBIUlyPHuI-169" value="" style="endArrow=none;html=1;entryX=0.5;entryY=1;entryDx=0;entryDy=0;exitX=0.5;exitY=0;exitDx=0;exitDy=0;" edge="1" parent="1" source="7jDqQBMyQRLBIUlyPHuI-49" target="7jDqQBMyQRLBIUlyPHuI-161">
          <mxGeometry width="50" height="50" relative="1" as="geometry">
            <mxPoint x="610" y="1260" as="sourcePoint" />
            <mxPoint x="660" y="1210" as="targetPoint" />
          </mxGeometry>
        </mxCell>
        <mxCell id="7jDqQBMyQRLBIUlyPHuI-173" value="Perform" style="rhombus;whiteSpace=wrap;html=1;" vertex="1" parent="1">
          <mxGeometry x="500" y="1285" width="60" height="60" as="geometry" />
        </mxCell>
        <mxCell id="7jDqQBMyQRLBIUlyPHuI-174" value="Test" style="whiteSpace=wrap;html=1;align=center;" vertex="1" parent="1">
          <mxGeometry x="330" y="1280" width="100" height="40" as="geometry" />
        </mxCell>
        <mxCell id="7jDqQBMyQRLBIUlyPHuI-175" value="" style="endArrow=none;html=1;exitX=1;exitY=0.5;exitDx=0;exitDy=0;entryX=0;entryY=0.5;entryDx=0;entryDy=0;" edge="1" parent="1" source="7jDqQBMyQRLBIUlyPHuI-174" target="7jDqQBMyQRLBIUlyPHuI-173">
          <mxGeometry width="50" height="50" relative="1" as="geometry">
            <mxPoint x="520" y="1220" as="sourcePoint" />
            <mxPoint x="570" y="1170" as="targetPoint" />
          </mxGeometry>
        </mxCell>
        <mxCell id="7jDqQBMyQRLBIUlyPHuI-176" value="" style="endArrow=none;html=1;exitX=0.5;exitY=0;exitDx=0;exitDy=0;entryX=0.5;entryY=1;entryDx=0;entryDy=0;" edge="1" parent="1" source="7jDqQBMyQRLBIUlyPHuI-174" target="7jDqQBMyQRLBIUlyPHuI-116">
          <mxGeometry width="50" height="50" relative="1" as="geometry">
            <mxPoint x="520" y="1220" as="sourcePoint" />
            <mxPoint x="570" y="1170" as="targetPoint" />
          </mxGeometry>
        </mxCell>
        <mxCell id="7jDqQBMyQRLBIUlyPHuI-177" value="" style="endArrow=none;html=1;exitX=0;exitY=0;exitDx=0;exitDy=0;entryX=0.68;entryY=1;entryDx=0;entryDy=0;entryPerimeter=0;" edge="1" parent="1" source="7jDqQBMyQRLBIUlyPHuI-174" target="7jDqQBMyQRLBIUlyPHuI-120">
          <mxGeometry width="50" height="50" relative="1" as="geometry">
            <mxPoint x="520" y="1220" as="sourcePoint" />
            <mxPoint x="570" y="1170" as="targetPoint" />
          </mxGeometry>
        </mxCell>
        <mxCell id="7jDqQBMyQRLBIUlyPHuI-178" value="" style="endArrow=none;html=1;exitX=1;exitY=0.5;exitDx=0;exitDy=0;entryX=0;entryY=0.5;entryDx=0;entryDy=0;" edge="1" parent="1" source="7jDqQBMyQRLBIUlyPHuI-119" target="7jDqQBMyQRLBIUlyPHuI-174">
          <mxGeometry width="50" height="50" relative="1" as="geometry">
            <mxPoint x="520" y="1220" as="sourcePoint" />
            <mxPoint x="570" y="1170" as="targetPoint" />
          </mxGeometry>
        </mxCell>
        <mxCell id="7jDqQBMyQRLBIUlyPHuI-179" value="" style="endArrow=none;html=1;exitX=1;exitY=0;exitDx=0;exitDy=0;" edge="1" parent="1" source="7jDqQBMyQRLBIUlyPHuI-118">
          <mxGeometry width="50" height="50" relative="1" as="geometry">
            <mxPoint x="520" y="1220" as="sourcePoint" />
            <mxPoint x="330" y="1320" as="targetPoint" />
          </mxGeometry>
        </mxCell>
        <mxCell id="7jDqQBMyQRLBIUlyPHuI-180" value="" style="endArrow=none;html=1;exitX=0.5;exitY=0;exitDx=0;exitDy=0;entryX=0.5;entryY=1;entryDx=0;entryDy=0;" edge="1" parent="1" source="7jDqQBMyQRLBIUlyPHuI-117" target="7jDqQBMyQRLBIUlyPHuI-174">
          <mxGeometry width="50" height="50" relative="1" as="geometry">
            <mxPoint x="460" y="1270" as="sourcePoint" />
            <mxPoint x="510" y="1220" as="targetPoint" />
          </mxGeometry>
        </mxCell>
        <mxCell id="7jDqQBMyQRLBIUlyPHuI-182" value="Undergo" style="rhombus;whiteSpace=wrap;html=1;" vertex="1" parent="1">
          <mxGeometry x="440" y="1140" width="60" height="60" as="geometry" />
        </mxCell>
        <mxCell id="7jDqQBMyQRLBIUlyPHuI-183" value="" style="endArrow=none;html=1;exitX=1;exitY=0;exitDx=0;exitDy=0;entryX=0.5;entryY=1;entryDx=0;entryDy=0;" edge="1" parent="1" source="7jDqQBMyQRLBIUlyPHuI-174" target="7jDqQBMyQRLBIUlyPHuI-182">
          <mxGeometry width="50" height="50" relative="1" as="geometry">
            <mxPoint x="420" y="1230" as="sourcePoint" />
            <mxPoint x="470" y="1180" as="targetPoint" />
          </mxGeometry>
        </mxCell>
        <mxCell id="7jDqQBMyQRLBIUlyPHuI-184" value="" style="endArrow=none;html=1;entryX=0.5;entryY=1;entryDx=0;entryDy=0;" edge="1" parent="1" source="7jDqQBMyQRLBIUlyPHuI-182" target="7jDqQBMyQRLBIUlyPHuI-61">
          <mxGeometry width="50" height="50" relative="1" as="geometry">
            <mxPoint x="420" y="1230" as="sourcePoint" />
            <mxPoint x="470" y="1180" as="targetPoint" />
          </mxGeometry>
        </mxCell>
      </root>
    </mxGraphModel>
  </diagram>
</mxfile>
